<?xml version="1.0" encoding="UTF-8"?>
<!DOCTYPE svg PUBLIC "-//W3C//DTD SVG 1.1//EN" "http://www.w3.org/Graphics/SVG/1.1/DTD/svg11.dtd">
<svg xmlns="http://www.w3.org/2000/svg" version="1.1" width="1296px" height="1216px" style="shape-rendering:geometricPrecision; text-rendering:geometricPrecision; image-rendering:optimizeQuality; fill-rule:evenodd; clip-rule:evenodd" xmlns:xlink="http://www.w3.org/1999/xlink">
<g><path style="opacity:0.997" fill="#000000" d="M -0.5,-0.5 C 431.5,-0.5 863.5,-0.5 1295.5,-0.5C 1295.5,404.833 1295.5,810.167 1295.5,1215.5C 863.5,1215.5 431.5,1215.5 -0.5,1215.5C -0.5,810.167 -0.5,404.833 -0.5,-0.5 Z M 588.5,159.5 C 589.216,314.668 590.049,470.002 591,625.5C 604.559,635.39 618.392,644.89 632.5,654C 635.419,654.552 638.086,653.885 640.5,652C 653.305,643.361 665.971,634.528 678.5,625.5C 679.882,470.503 680.882,315.503 681.5,160.5C 710.167,180.5 738.833,200.5 767.5,220.5C 768.667,370.832 768.833,521.166 768,671.5C 753.762,682.036 739.262,692.203 724.5,702C 720.821,704.346 717.821,707.346 715.5,711C 732.211,724.205 749.544,736.705 767.5,748.5C 768.5,849.164 768.833,949.831 768.5,1050.5C 739.167,1050.5 709.833,1050.5 680.5,1050.5C 680.339,965.498 679.839,880.498 679,795.5C 664.871,784.703 650.204,774.703 635,765.5C 619.796,774.703 605.129,784.703 591,795.5C 590.5,880.499 590.333,965.499 590.5,1050.5C 560.833,1050.5 531.167,1050.5 501.5,1050.5C 501.167,949.831 501.5,849.164 502.5,748.5C 520.733,736.557 538.4,723.89 555.5,710.5C 538.111,696.952 520.277,683.952 502,671.5C 501.333,521.167 501.333,370.833 502,220.5C 531.338,200.759 560.172,180.426 588.5,159.5 Z M 465.5,246.5 C 466.833,264.154 467.5,282.154 467.5,300.5C 467.333,318.5 467.167,336.5 467,354.5C 437.492,374.587 408.159,394.92 379,415.5C 377.918,402.365 377.418,389.198 377.5,376C 377.766,353.162 378.266,330.328 379,307.5C 408.013,287.304 436.847,266.97 465.5,246.5 Z M 803.5,246.5 C 892.149,308.141 980.815,369.808 1069.5,431.5C 1070.5,501.83 1070.83,572.164 1070.5,642.5C 1040.83,642.5 1011.17,642.5 981.5,642.5C 981.938,587.483 981.438,532.483 980,477.5C 950.971,456.972 921.805,436.639 892.5,416.5C 891.5,598.165 891.167,779.832 891.5,961.5C 921.5,961.5 951.5,961.5 981.5,961.5C 981.5,885.5 981.5,809.5 981.5,733.5C 1011.17,733.5 1040.83,733.5 1070.5,733.5C 1070.5,839.167 1070.5,944.833 1070.5,1050.5C 981.167,1050.5 891.833,1050.5 802.5,1050.5C 802.421,782.499 802.754,514.499 803.5,246.5 Z M 285.5,371.5 C 287.028,568.334 288.028,765.334 288.5,962.5C 318.166,962.877 347.833,963.21 377.5,963.5C 377.504,887.165 377.838,810.832 378.5,734.5C 407.833,734.5 437.167,734.5 466.5,734.5C 467.155,840.165 467.489,945.832 467.5,1051.5C 377.833,1051.5 288.167,1051.5 198.5,1051.5C 198.167,845.166 198.5,638.832 199.5,432.5C 228.585,412.636 257.251,392.303 285.5,371.5 Z"/></g>
</svg>
